<svg width="100" height="100" viewBox="0 0 100 100" fill="none" xmlns="http://www.w3.org/2000/svg">
<rect width="100" height="100" rx="50" fill="black"/>
<path d="M63.7465 43.4C63.5798 43.4 63.3298 43.3 62.9965 43.1C62.6965 42.8667 62.3798 42.6 62.0465 42.3C61.7132 42 61.4132 41.6833 61.1465 41.35C60.8798 40.9833 60.6965 40.6667 60.5965 40.4C61.1632 40.2333 61.7965 39.8833 62.4965 39.35C63.1965 38.8167 63.8632 38.1833 64.4965 37.45C65.1298 36.7167 65.6798 35.9333 66.1465 35.1C66.6132 34.2333 66.8965 33.4 66.9965 32.6C66.9965 31.7333 66.7298 31.0667 66.1965 30.6C65.6632 30.1333 64.5965 29.9 62.9965 29.9C61.5298 29.9 59.7965 30.4 57.7965 31.4C55.7965 32.4 53.7298 33.65 51.5965 35.15C49.4632 36.65 47.3798 38.2667 45.3465 40C43.3465 41.7333 41.6132 43.35 40.1465 44.85C38.7132 46.3167 37.6465 47.5333 36.9465 48.5C36.2798 49.4667 36.2298 49.9333 36.7965 49.9C37.4632 49.8667 38.3132 49.8 39.3465 49.7C40.3798 49.5667 41.4965 49.4333 42.6965 49.3C43.8965 49.1333 45.1298 48.9667 46.3965 48.8C47.6965 48.6333 48.9298 48.4833 50.0965 48.35C51.2965 48.2167 52.3798 48.1 53.3465 48C54.3465 47.9 55.1465 47.85 55.7465 47.85C56.7798 47.85 57.8298 48.0833 58.8965 48.55C59.9632 49.0167 60.9298 49.6167 61.7965 50.35C62.6632 51.05 63.3632 51.85 63.8965 52.75C64.4632 53.65 64.7465 54.5167 64.7465 55.35C64.7465 56.5833 64.4465 57.95 63.8465 59.45C63.2465 60.9167 62.4465 62.4167 61.4465 63.95C60.4465 65.4833 59.2798 66.9833 57.9465 68.45C56.6465 69.9167 55.2965 71.2333 53.8965 72.4C52.4965 73.5667 51.0965 74.5167 49.6965 75.25C48.2965 75.9833 46.9965 76.3833 45.7965 76.45C45.7298 76.45 45.6965 76.4333 45.6965 76.4L45.7465 76.35C45.2798 76.35 44.7632 76.2333 44.1965 76C43.6632 75.7667 43.1465 75.4667 42.6465 75.1C42.1465 74.7667 41.7298 74.3833 41.3965 73.95C41.0632 73.5167 40.8798 73.1 40.8465 72.7C40.7798 71.4 40.9965 70.1833 41.4965 69.05C42.0298 67.95 42.7132 66.9333 43.5465 66C44.4132 65.0667 45.3632 64.2333 46.3965 63.5C47.4632 62.7667 48.4798 62.15 49.4465 61.65C50.4465 61.15 51.3298 60.7667 52.0965 60.5C52.8965 60.2333 53.4632 60.1 53.7965 60.1C54.1298 60.1 54.4798 60.2 54.8465 60.4C55.2132 60.5667 55.3632 60.8667 55.2965 61.3C54.7965 61.3667 54.1632 61.5833 53.3965 61.95C52.6298 62.2833 51.8132 62.7167 50.9465 63.25C50.0798 63.75 49.2132 64.3333 48.3465 65C47.5132 65.6333 46.7798 66.3 46.1465 67C45.5132 67.6667 45.0298 68.3333 44.6965 69C44.3632 69.6667 44.2798 70.2833 44.4465 70.85C45.6798 70.75 46.8965 70.3333 48.0965 69.6C49.2965 68.9 50.4298 68.0333 51.4965 67C52.5632 65.9667 53.5632 64.85 54.4965 63.65C55.4298 62.45 56.2298 61.3167 56.8965 60.25C57.5632 59.15 58.0798 58.2 58.4465 57.4C58.8465 56.5667 59.0465 56 59.0465 55.7C59.0465 54.7 58.7298 54.0333 58.0965 53.7C57.4632 53.3667 56.3798 53.2 54.8465 53.2C54.3465 53.2 53.5632 53.2833 52.4965 53.45C51.4632 53.5833 50.2798 53.7833 48.9465 54.05C47.6465 54.2833 46.2798 54.55 44.8465 54.85C43.4132 55.1167 42.0632 55.3833 40.7965 55.65C39.5632 55.8833 38.4798 56.1 37.5465 56.3C36.6465 56.4667 36.0465 56.5667 35.7465 56.6C35.6798 56.6333 35.6465 56.65 35.6465 56.65C35.6798 56.6167 35.6632 56.6 35.5965 56.6C35.1632 56.6333 34.5798 56.5333 33.8465 56.3C33.1132 56.0333 32.3798 55.6667 31.6465 55.2C30.9132 54.7333 30.2798 54.1667 29.7465 53.5C29.1798 52.8 28.8798 52.0333 28.8465 51.2C28.6798 49.9333 29.1132 48.4 30.1465 46.6C31.1465 44.8 32.5298 42.9333 34.2965 41C36.0632 39.0333 38.1132 37.1 40.4465 35.2C42.7798 33.3 45.1798 31.6167 47.6465 30.15C50.1465 28.65 52.6132 27.4667 55.0465 26.6C57.5132 25.7333 59.7465 25.35 61.7465 25.45C62.9132 25.5167 63.9798 25.6833 64.9465 25.95C65.9465 26.2167 66.8132 26.6167 67.5465 27.15C68.2798 27.6833 68.8465 28.35 69.2465 29.15C69.6465 29.9167 69.8465 30.8333 69.8465 31.9C69.8465 32.8667 69.6798 34.0167 69.3465 35.35C69.0132 36.65 68.5632 37.9 67.9965 39.1C67.4298 40.3 66.7798 41.3167 66.0465 42.15C65.3132 42.9833 64.5465 43.4 63.7465 43.4Z" fill="white"/>
</svg>
